<svg width="20" height="21" viewBox="0 0 20 21" fill="none" xmlns="http://www.w3.org/2000/svg">
    <path fill-rule="evenodd" clip-rule="evenodd" d="M9.6763 2.16669C5.25271 2.16669 1.66669 5.67351 1.66669 9.9994C1.66669 14.3253 5.25271 17.8321 9.6763 17.8321C11.5683 17.8321 13.307 17.1906 14.6775 16.1179L17.2809 18.6572L17.3502 18.7155C17.5919 18.8905 17.9345 18.8706 18.1532 18.6561C18.3938 18.4202 18.3933 18.0383 18.1521 17.803L15.5793 15.2936C16.8875 13.8995 17.6859 12.0406 17.6859 9.9994C17.6859 5.67351 14.0999 2.16669 9.6763 2.16669ZM9.6763 3.37313C13.4185 3.37313 16.4522 6.33982 16.4522 9.9994C16.4522 13.659 13.4185 16.6257 9.6763 16.6257C5.93406 16.6257 2.90038 13.659 2.90038 9.9994C2.90038 6.33982 5.93406 3.37313 9.6763 3.37313Z" fill="url(#paint0_linear_339_2370)"/>
    <defs>
        <linearGradient id="paint0_linear_339_2370" x1="18.3334" y1="18.8334" x2="1.39521" y2="18.5527" gradientUnits="userSpaceOnUse">
            <stop stop-color="#888BF4"/>
            <stop offset="1" stop-color="#5151C6"/>
        </linearGradient>
    </defs>
</svg>
